<svg width="222" height="40" viewBox="0 0 222 40" fill="none" xmlns="http://www.w3.org/2000/svg">
<path d="M57.5568 16.375H52.5795C52.4886 15.7311 52.303 15.1591 52.0227 14.6591C51.7424 14.1515 51.3826 13.7197 50.9432 13.3636C50.5038 13.0076 49.9962 12.7348 49.4205 12.5455C48.8523 12.3561 48.2348 12.2614 47.5682 12.2614C46.3636 12.2614 45.3144 12.5606 44.4205 13.1591C43.5265 13.75 42.8333 14.6136 42.3409 15.75C41.8485 16.8788 41.6023 18.25 41.6023 19.8636C41.6023 21.5227 41.8485 22.9167 42.3409 24.0455C42.8409 25.1742 43.5379 26.0265 44.4318 26.6023C45.3258 27.178 46.3598 27.4659 47.5341 27.4659C48.1932 27.4659 48.803 27.3788 49.3636 27.2045C49.9318 27.0303 50.4356 26.7765 50.875 26.4432C51.3144 26.1023 51.678 25.6894 51.9659 25.2045C52.2614 24.7197 52.4659 24.1667 52.5795 23.5455L57.5568 23.5682C57.428 24.6364 57.1061 25.6667 56.5909 26.6591C56.0833 27.6439 55.3977 28.5265 54.5341 29.3068C53.678 30.0795 52.6553 30.6932 51.4659 31.1477C50.2841 31.5947 48.947 31.8182 47.4545 31.8182C45.3788 31.8182 43.5227 31.3485 41.8864 30.4091C40.2576 29.4697 38.9697 28.1098 38.0227 26.3295C37.0833 24.5492 36.6136 22.3939 36.6136 19.8636C36.6136 17.3258 37.0909 15.1667 38.0455 13.3864C39 11.6061 40.2955 10.25 41.9318 9.31818C43.5682 8.37879 45.4091 7.90909 47.4545 7.90909C48.803 7.90909 50.053 8.09848 51.2045 8.47727C52.3636 8.85606 53.3902 9.40909 54.2841 10.1364C55.178 10.8561 55.9053 11.7386 56.4659 12.7841C57.0341 13.8295 57.3977 15.0265 57.5568 16.375ZM68.8807 31.8409C67.1155 31.8409 65.589 31.4659 64.3011 30.7159C63.0208 29.9583 62.0322 28.9053 61.3352 27.5568C60.6383 26.2008 60.2898 24.6288 60.2898 22.8409C60.2898 21.0379 60.6383 19.4621 61.3352 18.1136C62.0322 16.7576 63.0208 15.7045 64.3011 14.9545C65.589 14.197 67.1155 13.8182 68.8807 13.8182C70.6458 13.8182 72.1686 14.197 73.4489 14.9545C74.7367 15.7045 75.7292 16.7576 76.4261 18.1136C77.1231 19.4621 77.4716 21.0379 77.4716 22.8409C77.4716 24.6288 77.1231 26.2008 76.4261 27.5568C75.7292 28.9053 74.7367 29.9583 73.4489 30.7159C72.1686 31.4659 70.6458 31.8409 68.8807 31.8409ZM68.9034 28.0909C69.7064 28.0909 70.3769 27.8636 70.9148 27.4091C71.4527 26.947 71.858 26.3182 72.1307 25.5227C72.411 24.7273 72.5511 23.822 72.5511 22.8068C72.5511 21.7917 72.411 20.8864 72.1307 20.0909C71.858 19.2955 71.4527 18.6667 70.9148 18.2045C70.3769 17.7424 69.7064 17.5114 68.9034 17.5114C68.0928 17.5114 67.411 17.7424 66.858 18.2045C66.3125 18.6667 65.8996 19.2955 65.6193 20.0909C65.3466 20.8864 65.2102 21.7917 65.2102 22.8068C65.2102 23.822 65.3466 24.7273 65.6193 25.5227C65.8996 26.3182 66.3125 26.947 66.858 27.4091C67.411 27.8636 68.0928 28.0909 68.9034 28.0909ZM85.4602 21.4091V31.5H80.6193V14.0455H85.233V17.125H85.4375C85.8239 16.1098 86.4716 15.3068 87.3807 14.7159C88.2898 14.1174 89.392 13.8182 90.6875 13.8182C91.8996 13.8182 92.9564 14.0833 93.858 14.6136C94.7595 15.1439 95.4602 15.9015 95.9602 16.8864C96.4602 17.8636 96.7102 19.0303 96.7102 20.3864V31.5H91.8693V21.25C91.8769 20.1818 91.6042 19.3485 91.0511 18.75C90.4981 18.1439 89.7367 17.8409 88.767 17.8409C88.1155 17.8409 87.5398 17.9811 87.0398 18.2614C86.5473 18.5417 86.161 18.9508 85.8807 19.4886C85.608 20.0189 85.4678 20.6591 85.4602 21.4091ZM115.048 19.0227L110.616 19.2955C110.541 18.9167 110.378 18.5758 110.128 18.2727C109.878 17.9621 109.548 17.7159 109.139 17.5341C108.738 17.3447 108.257 17.25 107.696 17.25C106.946 17.25 106.313 17.4091 105.798 17.7273C105.283 18.0379 105.026 18.4545 105.026 18.9773C105.026 19.3939 105.192 19.7462 105.526 20.0341C105.859 20.322 106.431 20.553 107.241 20.7273L110.401 21.3636C112.098 21.7121 113.363 22.2727 114.196 23.0455C115.029 23.8182 115.446 24.8333 115.446 26.0909C115.446 27.2348 115.109 28.2386 114.435 29.1023C113.768 29.9659 112.851 30.6402 111.685 31.125C110.526 31.6023 109.188 31.8409 107.673 31.8409C105.363 31.8409 103.522 31.3598 102.151 30.3977C100.787 29.428 99.9877 28.1098 99.7528 26.4432L104.514 26.1932C104.658 26.8977 105.007 27.4356 105.56 27.8068C106.113 28.1705 106.821 28.3523 107.685 28.3523C108.533 28.3523 109.215 28.1894 109.73 27.8636C110.253 27.5303 110.518 27.1023 110.526 26.5795C110.518 26.1402 110.332 25.7803 109.969 25.5C109.605 25.2121 109.045 24.9924 108.287 24.8409L105.264 24.2386C103.56 23.8977 102.291 23.3068 101.457 22.4659C100.632 21.625 100.219 20.553 100.219 19.25C100.219 18.1288 100.522 17.1629 101.128 16.3523C101.741 15.5417 102.601 14.9167 103.707 14.4773C104.821 14.0379 106.124 13.8182 107.616 13.8182C109.821 13.8182 111.556 14.2841 112.821 15.2159C114.094 16.1477 114.836 17.4167 115.048 19.0227ZM127.778 14.0455V17.6818H117.267V14.0455H127.778ZM119.653 9.86364H124.494V26.1364C124.494 26.5833 124.563 26.9318 124.699 27.1818C124.835 27.4242 125.025 27.5947 125.267 27.6932C125.517 27.7917 125.805 27.8409 126.131 27.8409C126.358 27.8409 126.585 27.822 126.812 27.7841C127.04 27.7386 127.214 27.7045 127.335 27.6818L128.097 31.2841C127.854 31.3598 127.513 31.447 127.074 31.5455C126.634 31.6515 126.1 31.7159 125.472 31.7386C124.305 31.7841 123.282 31.6288 122.403 31.2727C121.532 30.9167 120.854 30.3636 120.369 29.6136C119.884 28.8636 119.646 27.9167 119.653 26.7727V9.86364ZM130.932 31.5V14.0455H135.625V17.0909H135.807C136.125 16.0076 136.659 15.1894 137.409 14.6364C138.159 14.0758 139.023 13.7955 140 13.7955C140.242 13.7955 140.504 13.8106 140.784 13.8409C141.064 13.8712 141.311 13.9129 141.523 13.9659V18.2614C141.295 18.1932 140.981 18.1326 140.58 18.0795C140.178 18.0265 139.811 18 139.477 18C138.765 18 138.129 18.1553 137.568 18.4659C137.015 18.7689 136.576 19.1932 136.25 19.7386C135.932 20.2841 135.773 20.9129 135.773 21.625V31.5H130.932ZM155.219 24.0682V14.0455H160.06V31.5H155.412V28.3295H155.23C154.836 29.3523 154.181 30.1742 153.264 30.7955C152.355 31.4167 151.245 31.7273 149.935 31.7273C148.768 31.7273 147.741 31.4621 146.855 30.9318C145.969 30.4015 145.276 29.6477 144.776 28.6705C144.283 27.6932 144.033 26.5227 144.026 25.1591V14.0455H148.866V24.2955C148.874 25.3258 149.151 26.1402 149.696 26.7386C150.241 27.3371 150.973 27.6364 151.889 27.6364C152.473 27.6364 153.018 27.5038 153.526 27.2386C154.033 26.9659 154.442 26.5644 154.753 26.0341C155.071 25.5038 155.226 24.8485 155.219 24.0682ZM171.818 31.8409C170.03 31.8409 168.492 31.4621 167.205 30.7045C165.924 29.9394 164.939 28.8788 164.25 27.5227C163.568 26.1667 163.227 24.6061 163.227 22.8409C163.227 21.053 163.572 19.4848 164.261 18.1364C164.958 16.7803 165.947 15.7235 167.227 14.9659C168.508 14.2008 170.03 13.8182 171.795 13.8182C173.318 13.8182 174.652 14.0947 175.795 14.6477C176.939 15.2008 177.845 15.9773 178.511 16.9773C179.178 17.9773 179.545 19.1515 179.614 20.5H175.045C174.917 19.6288 174.576 18.928 174.023 18.3977C173.477 17.8598 172.761 17.5909 171.875 17.5909C171.125 17.5909 170.47 17.7955 169.909 18.2045C169.356 18.6061 168.924 19.1932 168.614 19.9659C168.303 20.7386 168.148 21.6742 168.148 22.7727C168.148 23.8864 168.299 24.8333 168.602 25.6136C168.913 26.3939 169.348 26.9886 169.909 27.3977C170.47 27.8068 171.125 28.0114 171.875 28.0114C172.428 28.0114 172.924 27.8977 173.364 27.6705C173.811 27.4432 174.178 27.1136 174.466 26.6818C174.761 26.2424 174.955 25.7159 175.045 25.1023H179.614C179.538 26.4356 179.174 27.6098 178.523 28.625C177.879 29.6326 176.989 30.4205 175.852 30.9886C174.716 31.5568 173.371 31.8409 171.818 31.8409ZM191.997 14.0455V17.6818H181.486V14.0455H191.997ZM183.872 9.86364H188.713V26.1364C188.713 26.5833 188.781 26.9318 188.918 27.1818C189.054 27.4242 189.243 27.5947 189.486 27.6932C189.736 27.7917 190.024 27.8409 190.349 27.8409C190.577 27.8409 190.804 27.822 191.031 27.7841C191.259 27.7386 191.433 27.7045 191.554 27.6818L192.315 31.2841C192.073 31.3598 191.732 31.447 191.293 31.5455C190.853 31.6515 190.319 31.7159 189.69 31.7386C188.524 31.7841 187.501 31.6288 186.622 31.2727C185.751 30.9167 185.073 30.3636 184.588 29.6136C184.103 28.8636 183.865 27.9167 183.872 26.7727V9.86364ZM200.366 8.22727V31.5H195.526V8.22727H200.366ZM207.233 38.0455C206.619 38.0455 206.044 37.9962 205.506 37.8977C204.975 37.8068 204.536 37.6894 204.188 37.5455L205.278 33.9318C205.847 34.1061 206.358 34.2008 206.812 34.2159C207.275 34.2311 207.672 34.125 208.006 33.8977C208.347 33.6705 208.623 33.2841 208.835 32.7386L209.119 32L202.858 14.0455H207.949L211.562 26.8636H211.744L215.392 14.0455H220.517L213.733 33.3864C213.407 34.3258 212.964 35.1439 212.403 35.8409C211.85 36.5455 211.15 37.0871 210.301 37.4659C209.453 37.8523 208.43 38.0455 207.233 38.0455Z" fill="#F97615"/>
<path d="M26.6667 16.3933V16.1666C26.6748 13.8986 25.9552 11.6877 24.6136 9.85893C23.272 8.03016 21.3792 6.67992 19.2134 6.00664H19.1334C18.0149 5.66518 16.8493 5.50317 15.68 5.52664C12.8958 5.67943 10.2748 6.88897 8.35204 8.90841C6.42924 10.9278 5.34957 13.6049 5.33338 16.3933C4.55206 16.6682 3.87533 17.1788 3.3966 17.8547C2.91788 18.5306 2.66077 19.3384 2.66077 20.1666C2.66077 20.9949 2.91788 21.8027 3.3966 22.4786C3.87533 23.1545 4.55206 23.6651 5.33338 23.94C5.608 26.573 6.85194 29.0099 8.82335 30.7767C10.7948 32.5436 13.3528 33.5143 16 33.5H16.3067C18.8667 33.3761 21.2999 32.3491 23.1745 30.6014C25.0492 28.8537 26.2439 26.4983 26.5467 23.9533C27.3372 23.694 28.0272 23.1947 28.5206 22.5248C29.014 21.8549 29.2863 21.0479 29.2995 20.2161C29.3127 19.3842 29.0662 18.5689 28.5943 17.8837C28.1224 17.1986 27.4486 16.6776 26.6667 16.3933ZM16.24 30.8333C14.3099 30.8891 12.4247 30.245 10.9323 29.0197C9.43993 27.7944 8.44106 26.0707 8.12005 24.1666H23.8134C23.488 25.9692 22.5627 27.6087 21.1878 28.819C19.813 30.0293 18.0693 30.7391 16.24 30.8333ZM25.3334 21.5H6.66671C6.31309 21.5 5.97395 21.3595 5.7239 21.1095C5.47386 20.8594 5.33338 20.5203 5.33338 20.1666C5.33338 19.813 5.47386 19.4739 5.7239 19.2238C5.97395 18.9738 6.31309 18.8333 6.66671 18.8333H9.33338C9.687 18.8333 10.0261 18.6928 10.2762 18.4428C10.5262 18.1927 10.6667 17.8536 10.6667 17.5C10.6667 17.1464 10.5262 16.8072 10.2762 16.5572C10.0261 16.3071 9.687 16.1666 9.33338 16.1666H8.00005C8.05973 14.7835 8.45507 13.4356 9.15194 12.2393C9.84881 11.043 10.8263 10.0342 12 9.29998V13.5C12 13.8536 12.1405 14.1927 12.3906 14.4428C12.6406 14.6928 12.9798 14.8333 13.3334 14.8333C13.687 14.8333 14.0261 14.6928 14.2762 14.4428C14.5262 14.1927 14.6667 13.8536 14.6667 13.5V8.28664C15.0285 8.22518 15.3936 8.18512 15.76 8.16664H16C16.4468 8.17468 16.8924 8.21478 17.3334 8.28664V13.5C17.3334 13.8536 17.4739 14.1927 17.7239 14.4428C17.974 14.6928 18.3131 14.8333 18.6667 14.8333C19.0203 14.8333 19.3595 14.6928 19.6095 14.4428C19.8596 14.1927 20 13.8536 20 13.5V9.25998C20.5653 9.58793 21.0929 9.97692 21.5734 10.42C22.3421 11.1665 22.9531 12.0599 23.3699 13.047C23.7868 14.0342 24.0011 15.0951 24 16.1666H22.6667C22.3131 16.1666 21.974 16.3071 21.7239 16.5572C21.4739 16.8072 21.3334 17.1464 21.3334 17.5C21.3334 17.8536 21.4739 18.1927 21.7239 18.4428C21.974 18.6928 22.3131 18.8333 22.6667 18.8333H25.3334C25.687 18.8333 26.0261 18.9738 26.2762 19.2238C26.5262 19.4739 26.6667 19.813 26.6667 20.1666C26.6667 20.5203 26.5262 20.8594 26.2762 21.1095C26.0261 21.3595 25.687 21.5 25.3334 21.5Z" fill="#F97615"/>
</svg>
