<svg width="80" height="16" viewBox="0 0 80 16" fill="none" xmlns="http://www.w3.org/2000/svg">
<path d="M7.99998 11.5167L5.23331 13.1833C5.11109 13.2611 4.98331 13.2944 4.84998 13.2833C4.71664 13.2722 4.59998 13.2278 4.49998 13.15C4.39998 13.0722 4.3222 12.9751 4.26664 12.8587C4.21109 12.7422 4.19998 12.6116 4.23331 12.4667L4.96664 9.31667L2.51664 7.2C2.40553 7.1 2.3362 6.986 2.30864 6.858C2.28109 6.73 2.28931 6.60511 2.33331 6.48333C2.37731 6.36155 2.44398 6.26155 2.53331 6.18333C2.62264 6.10511 2.74486 6.05511 2.89998 6.03333L6.13331 5.75L7.38331 2.78333C7.43886 2.65 7.52509 2.55 7.64198 2.48333C7.75886 2.41666 7.8782 2.38333 7.99998 2.38333C8.12175 2.38333 8.24109 2.41666 8.35798 2.48333C8.47486 2.55 8.56109 2.65 8.61664 2.78333L9.86664 5.75L13.1 6.03333C13.2555 6.05555 13.3778 6.10555 13.4666 6.18333C13.5555 6.26111 13.6222 6.36111 13.6666 6.48333C13.7111 6.60555 13.7195 6.73066 13.692 6.85866C13.6644 6.98666 13.5949 7.10044 13.4833 7.2L11.0333 9.31667L11.7666 12.4667C11.8 12.6111 11.7889 12.7418 11.7333 12.8587C11.6778 12.9756 11.6 13.0727 11.5 13.15C11.4 13.2273 11.2833 13.2718 11.15 13.2833C11.0166 13.2949 10.8889 13.2616 10.7666 13.1833L7.99998 11.5167Z" fill="#FACC15"/>
<path d="M24 11.5167L21.2333 13.1833C21.1111 13.2611 20.9833 13.2944 20.85 13.2833C20.7166 13.2722 20.6 13.2278 20.5 13.15C20.4 13.0722 20.3222 12.9751 20.2666 12.8587C20.2111 12.7422 20.2 12.6116 20.2333 12.4667L20.9666 9.31667L18.5166 7.2C18.4055 7.1 18.3362 6.986 18.3086 6.858C18.2811 6.73 18.2893 6.60511 18.3333 6.48333C18.3773 6.36155 18.444 6.26155 18.5333 6.18333C18.6226 6.10511 18.7449 6.05511 18.9 6.03333L22.1333 5.75L23.3833 2.78333C23.4389 2.65 23.5251 2.55 23.642 2.48333C23.7589 2.41666 23.8782 2.38333 24 2.38333C24.1218 2.38333 24.2411 2.41666 24.358 2.48333C24.4749 2.55 24.5611 2.65 24.6166 2.78333L25.8666 5.75L29.1 6.03333C29.2555 6.05555 29.3778 6.10555 29.4666 6.18333C29.5555 6.26111 29.6222 6.36111 29.6666 6.48333C29.7111 6.60555 29.7195 6.73066 29.692 6.85866C29.6644 6.98666 29.5949 7.10044 29.4833 7.2L27.0333 9.31667L27.7666 12.4667C27.8 12.6111 27.7889 12.7418 27.7333 12.8587C27.6778 12.9756 27.6 13.0727 27.5 13.15C27.4 13.2273 27.2833 13.2718 27.15 13.2833C27.0166 13.2949 26.8889 13.2616 26.7666 13.1833L24 11.5167Z" fill="#FACC15"/>
<path d="M40 11.5167L37.2333 13.1833C37.1111 13.2611 36.9833 13.2944 36.85 13.2833C36.7166 13.2722 36.6 13.2278 36.5 13.15C36.4 13.0722 36.3222 12.9751 36.2666 12.8587C36.2111 12.7422 36.2 12.6116 36.2333 12.4667L36.9666 9.31667L34.5166 7.2C34.4055 7.1 34.3362 6.986 34.3086 6.858C34.2811 6.73 34.2893 6.60511 34.3333 6.48333C34.3773 6.36155 34.444 6.26155 34.5333 6.18333C34.6226 6.10511 34.7449 6.05511 34.9 6.03333L38.1333 5.75L39.3833 2.78333C39.4389 2.65 39.5251 2.55 39.642 2.48333C39.7589 2.41666 39.8782 2.38333 40 2.38333C40.1218 2.38333 40.2411 2.41666 40.358 2.48333C40.4749 2.55 40.5611 2.65 40.6166 2.78333L41.8666 5.75L45.1 6.03333C45.2555 6.05555 45.3778 6.10555 45.4666 6.18333C45.5555 6.26111 45.6222 6.36111 45.6666 6.48333C45.7111 6.60555 45.7195 6.73066 45.692 6.85866C45.6644 6.98666 45.5949 7.10044 45.4833 7.2L43.0333 9.31667L43.7666 12.4667C43.8 12.6111 43.7889 12.7418 43.7333 12.8587C43.6778 12.9756 43.6 13.0727 43.5 13.15C43.4 13.2273 43.2833 13.2718 43.15 13.2833C43.0166 13.2949 42.8889 13.2616 42.7666 13.1833L40 11.5167Z" fill="#FACC15"/>
<path d="M56 11.5167L53.2333 13.1833C53.1111 13.2611 52.9833 13.2944 52.85 13.2833C52.7166 13.2722 52.6 13.2278 52.5 13.15C52.4 13.0722 52.3222 12.9751 52.2666 12.8587C52.2111 12.7422 52.2 12.6116 52.2333 12.4667L52.9666 9.31667L50.5166 7.2C50.4055 7.1 50.3362 6.986 50.3086 6.858C50.2811 6.73 50.2893 6.60511 50.3333 6.48333C50.3773 6.36155 50.444 6.26155 50.5333 6.18333C50.6226 6.10511 50.7449 6.05511 50.9 6.03333L54.1333 5.75L55.3833 2.78333C55.4389 2.65 55.5251 2.55 55.642 2.48333C55.7589 2.41666 55.8782 2.38333 56 2.38333C56.1218 2.38333 56.2411 2.41666 56.358 2.48333C56.4749 2.55 56.5611 2.65 56.6166 2.78333L57.8666 5.75L61.1 6.03333C61.2555 6.05555 61.3778 6.10555 61.4666 6.18333C61.5555 6.26111 61.6222 6.36111 61.6666 6.48333C61.7111 6.60555 61.7195 6.73066 61.692 6.85866C61.6644 6.98666 61.5949 7.10044 61.4833 7.2L59.0333 9.31667L59.7666 12.4667C59.8 12.6111 59.7889 12.7418 59.7333 12.8587C59.6778 12.9756 59.6 13.0727 59.5 13.15C59.4 13.2273 59.2833 13.2718 59.15 13.2833C59.0166 13.2949 58.8889 13.2616 58.7666 13.1833L56 11.5167Z" fill="#FACC15"/>
<path d="M72 11.5167L69.2333 13.1833C69.1111 13.2611 68.9833 13.2944 68.85 13.2833C68.7166 13.2722 68.6 13.2278 68.5 13.15C68.4 13.0722 68.3222 12.9751 68.2666 12.8587C68.2111 12.7422 68.2 12.6116 68.2333 12.4667L68.9666 9.31667L66.5166 7.2C66.4055 7.1 66.3362 6.986 66.3086 6.858C66.2811 6.73 66.2893 6.60511 66.3333 6.48333C66.3773 6.36155 66.444 6.26155 66.5333 6.18333C66.6226 6.10511 66.7449 6.05511 66.9 6.03333L70.1333 5.75L71.3833 2.78333C71.4389 2.65 71.5251 2.55 71.642 2.48333C71.7589 2.41666 71.8782 2.38333 72 2.38333C72.1218 2.38333 72.2411 2.41666 72.358 2.48333C72.4749 2.55 72.5611 2.65 72.6166 2.78333L73.8666 5.75L77.1 6.03333C77.2555 6.05555 77.3778 6.10555 77.4666 6.18333C77.5555 6.26111 77.6222 6.36111 77.6666 6.48333C77.7111 6.60555 77.7195 6.73066 77.692 6.85866C77.6644 6.98666 77.5949 7.10044 77.4833 7.2L75.0333 9.31667L75.7666 12.4667C75.8 12.6111 75.7889 12.7418 75.7333 12.8587C75.6778 12.9756 75.6 13.0727 75.5 13.15C75.4 13.2273 75.2833 13.2718 75.15 13.2833C75.0166 13.2949 74.8889 13.2616 74.7666 13.1833L72 11.5167Z" fill="#FACC15"/>
</svg>
