<svg width="38" height="38" viewBox="0 0 38 38" fill="none" xmlns="http://www.w3.org/2000/svg">
<g clip-path="url(#clip0_4_21)">
<path d="M13.3895 1.71694C9.69266 2.99942 6.50448 5.43361 4.29329 8.66196C2.0821 11.8903 0.964445 15.7427 1.1045 19.6532C1.24455 23.5637 2.63493 27.3262 5.0714 30.3881C7.50788 33.45 10.862 35.6499 14.6412 36.6646C17.705 37.4552 20.915 37.4899 23.9952 36.7658C26.7856 36.139 29.3654 34.7983 31.482 32.875C33.6848 30.8121 35.2838 28.1878 36.107 25.2842C37.0017 22.1267 37.1609 18.8061 36.5723 15.5775H19.3673V22.7144H29.3313C29.1322 23.8527 28.7055 24.9392 28.0767 25.9087C27.4479 26.8782 26.6299 27.7109 25.6718 28.3569C24.4551 29.1618 23.0835 29.7033 21.6452 29.9468C20.2026 30.215 18.7229 30.215 17.2803 29.9468C15.8182 29.6445 14.4351 29.041 13.219 28.1748C11.2654 26.7919 9.79844 24.8273 9.02758 22.5612C8.24368 20.2528 8.24368 17.7501 9.02758 15.4416C9.5763 13.8235 10.4834 12.3502 11.6812 11.1317C13.0519 9.71168 14.7872 8.69663 16.6969 8.19794C18.6065 7.69925 20.6166 7.73618 22.5066 8.30467C23.983 8.7579 25.3332 9.54978 26.4494 10.6172C27.5729 9.49947 28.6944 8.37887 29.8141 7.25538C30.3922 6.65124 31.0223 6.076 31.5918 5.45741C29.888 3.87183 27.888 2.63806 25.7065 1.82678C21.7339 0.384333 17.3872 0.345568 13.3895 1.71694Z" fill="white"/>
<path d="M13.3893 1.71694C17.3867 0.344637 21.7334 0.382381 25.7063 1.82389C27.8882 2.64068 29.8872 3.8804 31.5887 5.47186C31.0106 6.09046 30.4007 6.66858 29.811 7.26983C28.6894 8.38947 27.5688 9.50525 26.4492 10.6172C25.333 9.54978 23.9828 8.7579 22.5064 8.30468C20.617 7.73418 18.607 7.69512 16.6968 8.19177C14.7867 8.68843 13.0503 9.7016 11.6781 11.1201C10.4803 12.3386 9.57321 13.8119 9.02449 15.4301L3.03223 10.7906C5.17709 6.53724 8.8908 3.28373 13.3893 1.71694Z" fill="#E33629"/>
<path d="M1.44241 15.3867C1.76449 13.7905 2.29921 12.2447 3.03226 10.7906L9.02452 15.4416C8.24063 17.7501 8.24063 20.2528 9.02452 22.5612C7.02806 24.1029 5.03064 25.6523 3.03226 27.2094C1.19715 23.5565 0.637469 19.3946 1.44241 15.3867Z" fill="#F8BD00"/>
<path d="M19.3675 15.5746H36.5725C37.161 18.8032 37.0018 22.1238 36.1071 25.2813C35.284 28.1849 33.685 30.8092 31.4821 32.8721C29.5483 31.3632 27.6058 29.8659 25.672 28.357C26.6307 27.7103 27.449 26.8767 28.0778 25.9061C28.7067 24.9355 29.1331 23.848 29.3315 22.7087H19.3675C19.3646 20.3326 19.3675 17.9536 19.3675 15.5746Z" fill="#587DBD"/>
<path d="M3.0293 27.2094C5.02768 25.6677 7.0251 24.1183 9.02156 22.5612C9.79396 24.8281 11.263 26.7928 13.2188 28.1748C14.4386 29.037 15.8247 29.6356 17.2888 29.9323C18.7313 30.2006 20.211 30.2006 21.6536 29.9323C23.092 29.6889 24.4635 29.1473 25.6802 28.3425C27.6141 29.8514 29.5566 31.3487 31.4904 32.8577C29.3741 34.782 26.7943 36.1237 24.0037 36.7513C20.9234 37.4754 17.7135 37.4407 14.6496 36.6502C12.2264 36.0032 9.96297 34.8626 8.00117 33.2999C5.92472 31.6514 4.22878 29.5738 3.0293 27.2094Z" fill="#319F43"/>
</g>
<defs>
<clipPath id="clip0_4_21">
<rect width="37" height="37" fill="white" transform="translate(0.5 0.5)"/>
</clipPath>
</defs>
</svg>
