<svg width="90" height="90" viewBox="0 0 90 90" fill="none" xmlns="http://www.w3.org/2000/svg">
<path d="M82.5 18.75C82.5 21.7337 81.3147 24.5952 79.205 26.705C77.0952 28.8147 74.2337 30 71.25 30C68.2663 30 65.4048 28.8147 63.295 26.705C61.1853 24.5952 60 21.7337 60 18.75C60 15.7663 61.1853 12.9048 63.295 10.795C65.4048 8.68526 68.2663 7.5 71.25 7.5C74.2337 7.5 77.0952 8.68526 79.205 10.795C81.3147 12.9048 82.5 15.7663 82.5 18.75Z" fill="#F97615"/>
<path fill-rule="evenodd" clip-rule="evenodd" d="M58.545 7.6425C54.7125 7.5 50.2463 7.5 45 7.5C27.3225 7.5 18.4838 7.5 12.99 12.99C7.5 18.4875 7.5 27.3225 7.5 45C7.5 62.6775 7.5 71.5162 12.99 77.0062C18.4875 82.5 27.3225 82.5 45 82.5C62.6775 82.5 71.5162 82.5 77.0062 77.0062C82.5 71.52 82.5 62.6775 82.5 45C82.5 39.7537 82.5 35.2875 82.3575 31.455C79.1358 34.2758 74.9621 35.7664 70.6823 35.6245C66.4025 35.4827 62.3367 33.7192 59.3088 30.6912C56.2808 27.6633 54.5173 23.5975 54.3755 19.3177C54.2336 15.0379 55.7242 10.8642 58.545 7.6425ZM65.55 35.34C66.1227 35.8175 66.4823 36.5029 66.5498 37.2455C66.6173 37.9881 66.3872 38.727 65.91 39.3L59.0512 47.5313C57.8212 49.0088 56.7113 50.3438 55.6763 51.2813C54.5438 52.2938 53.1262 53.205 51.2512 53.205C49.3762 53.205 47.955 52.2975 46.8263 51.2775C45.7913 50.34 44.6813 49.0087 43.4475 47.5275L42.3525 46.215C40.9612 44.5463 40.1062 43.53 39.4012 42.8963C39.2178 42.7183 39.0124 42.5646 38.79 42.4388L38.7525 42.42L38.7338 42.4275L38.7075 42.4388C38.4851 42.5646 38.2797 42.7183 38.0963 42.8963C37.395 43.5338 36.54 44.5463 35.1488 46.215L28.41 54.3C27.9266 54.8526 27.2462 55.1943 26.5142 55.252C25.7823 55.3096 25.0567 55.0788 24.4927 54.6088C23.9286 54.1387 23.5708 53.4667 23.4955 52.7364C23.4203 52.006 23.6336 51.2752 24.09 50.7L30.9488 42.4687C32.1788 40.9912 33.2887 39.6562 34.3237 38.7187C35.4562 37.7062 36.8738 36.795 38.7488 36.795C40.6238 36.795 42.045 37.7025 43.1737 38.7225C44.2087 39.66 45.3187 40.9913 46.5525 42.4725L47.6475 43.785C49.0388 45.4537 49.8938 46.47 50.5988 47.1037C50.9213 47.3962 51.1163 47.5162 51.21 47.5612L51.2213 47.565L51.2512 47.58L51.2888 47.5612C51.5125 47.4357 51.7192 47.2819 51.9037 47.1037C52.605 46.4662 53.46 45.4537 54.8512 43.785L61.59 35.7C62.0675 35.1273 62.7529 34.7677 63.4955 34.7002C64.238 34.6327 64.977 34.8628 65.55 35.34Z" fill="#F97615"/>
</svg>
