<svg width="20" height="20" viewBox="0 0 20 20" fill="none" xmlns="http://www.w3.org/2000/svg">
<path d="M9.99996 11.6667C11.8383 11.6667 13.3333 10.1717 13.3333 8.33333C13.3333 6.495 11.8383 5 9.99996 5C8.16163 5 6.66663 6.495 6.66663 8.33333C6.66663 10.1717 8.16163 11.6667 9.99996 11.6667ZM9.99996 6.66667C10.9191 6.66667 11.6666 7.41417 11.6666 8.33333C11.6666 9.2525 10.9191 10 9.99996 10C9.08079 10 8.33329 9.2525 8.33329 8.33333C8.33329 7.41417 9.08079 6.66667 9.99996 6.66667Z" fill="#F97615"/>
<path d="M9.51666 18.1783C9.65779 18.2788 9.82674 18.3328 9.99999 18.3328C10.1732 18.3328 10.3422 18.2788 10.4833 18.1783C10.7367 17.9992 16.6908 13.7 16.6667 8.33333C16.6667 4.6575 13.6758 1.66666 9.99999 1.66666C6.32416 1.66666 3.33333 4.6575 3.33333 8.32916C3.30916 13.7 9.26333 17.9992 9.51666 18.1783ZM9.99999 3.33333C12.7575 3.33333 15 5.57583 15 8.3375C15.0175 12.0358 11.3433 15.3567 9.99999 16.4458C8.65749 15.3558 4.98249 12.0342 4.99999 8.33333C4.99999 5.57583 7.24249 3.33333 9.99999 3.33333Z" fill="#F97615"/>
</svg>
