<svg width="20" height="20" viewBox="0 0 20 20" fill="none" xmlns="http://www.w3.org/2000/svg">
<path d="M17.0733 12.7692C16.6968 12.5789 16.3828 12.2848 16.1683 11.9217C14.9665 12.1601 13.7476 12.3018 12.5233 12.3454C10.9816 12.3454 9.737 12.2721 10.2453 10.8354C10.7537 9.39875 12.1028 6.43708 12.5758 5.84125C13.0487 5.24542 13.6949 4.49125 14.0128 4.52667C14.407 4.57083 15.1441 5.06167 15.0612 5.37417C14.9824 5.67208 14.5912 6.32292 13.9166 5.85958" stroke="#F97615" stroke-width="0.666667" stroke-linecap="round" stroke-linejoin="round"/>
<path d="M13.6934 6.18333C13.8423 5.93285 14.0235 5.70297 14.2322 5.49958M14.9751 5.58583C15.2113 5.52583 15.6584 5.82833 15.4059 6.13917C15.0872 6.44886 14.674 6.64305 14.2322 6.69083C13.9718 6.71417 13.0668 6.6825 13.0668 6.6825C12.6813 7.34792 12.7688 8.36458 12.7334 9.25833C12.7155 9.78618 12.5905 10.3049 12.3659 10.7829C13.9076 10.0642 16.5363 9.52083 18.1251 9.78375M2.92676 12.7692C3.30317 12.5789 3.61721 12.2848 3.83176 11.9217C5.03348 12.1601 6.25238 12.3018 7.47676 12.3454C9.01843 12.3454 10.263 12.2721 9.75467 10.8354C9.24634 9.39875 7.89718 6.43708 7.42426 5.84125C6.95134 5.24542 6.30509 4.49125 5.98717 4.52667C5.59301 4.57083 4.85592 5.06167 4.93884 5.37417C5.01759 5.67208 5.40884 6.32292 6.08342 5.85958" stroke="#F97615" stroke-width="0.666667" stroke-linecap="round" stroke-linejoin="round"/>
<path d="M6.30667 6.18333C6.15787 5.93287 5.97689 5.703 5.76833 5.49958M5.025 5.58583C4.78875 5.52583 4.34167 5.82833 4.59417 6.13917C4.91302 6.44894 5.32635 6.64314 5.76833 6.69083C6.02833 6.71417 6.93333 6.6825 6.93333 6.6825C7.31875 7.34792 7.23125 8.36458 7.26667 9.25833C7.28456 9.78618 7.40959 10.3049 7.63417 10.7829C6.0925 10.0637 3.46375 9.52083 1.875 9.78333M13.4088 4.8925C11.1883 4.20246 8.81082 4.20246 6.59042 4.8925" stroke="#F97615" stroke-width="0.666667" stroke-linecap="round" stroke-linejoin="round"/>
<path d="M4.54875 5.82917C2.90667 6.85833 1.875 8.34583 1.875 10C1.875 13.1067 5.5125 15.625 10 15.625C14.4875 15.625 18.125 13.1067 18.125 10C18.125 8.34583 17.0933 6.85833 15.4512 5.82917" stroke="#F97615" stroke-width="0.666667" stroke-linecap="round" stroke-linejoin="round"/>
</svg>
