<svg width="80" height="80" viewBox="0 0 80 80" fill="none" xmlns="http://www.w3.org/2000/svg">
<path d="M17.5 10C17.0361 10 16.5813 10.1291 16.1866 10.3728C15.7919 10.6165 15.4728 10.9653 15.265 11.38L5.26496 31.38C5.04869 31.8106 4.96148 32.2945 5.01381 32.7736C5.06615 33.2526 5.25581 33.7063 5.55996 34.08L38.06 74.08C38.2944 74.3684 38.5901 74.6009 38.9257 74.7606C39.2613 74.9203 39.6283 75.0032 40 75.0032C40.3716 75.0032 40.7386 74.9203 41.0742 74.7606C41.4098 74.6009 41.7055 74.3684 41.94 74.08L74.44 34.08C74.7449 33.7068 74.9355 33.2533 74.9887 32.7743C75.0419 32.2953 74.9555 31.8111 74.74 31.38L64.74 11.38C64.5318 10.9645 64.2119 10.6153 63.8162 10.3715C63.4205 10.1277 62.9647 9.99909 62.5 10H17.5ZM11.545 30L19.045 15H29.295L25.545 30H11.545ZM12.75 35H25.665L33.73 60.82L12.75 35ZM30.9 35H49.1L40 64.115L30.9 35ZM54.34 35H67.25L46.27 60.82L54.34 35ZM68.455 30H54.455L50.705 15H60.955L68.455 30ZM49.3 30H30.7L34.45 15H45.55L49.3 30Z" fill="#F97615"/>
</svg>
