<svg width="88" height="89" viewBox="0 0 88 89" fill="none" xmlns="http://www.w3.org/2000/svg">
<path d="M80.6667 35.6567C80.4351 34.986 80.0139 34.3969 79.4542 33.9608C78.8945 33.5248 78.2203 33.2605 77.5133 33.2L56.65 30.1567L47.3 11.2C46.9997 10.5801 46.531 10.0572 45.9473 9.69143C45.3637 9.32561 44.6888 9.13159 44 9.13159C43.3112 9.13159 42.6363 9.32561 42.0527 9.69143C41.469 10.0572 41.0002 10.5801 40.7 11.2L31.35 30.12L10.4867 33.2C9.80805 33.2964 9.17005 33.5812 8.64508 34.0219C8.12011 34.4626 7.72918 35.0417 7.51667 35.6933C7.32213 36.3301 7.30467 37.0079 7.46617 37.6539C7.62766 38.2998 7.96201 38.8897 8.43333 39.36L23.5767 54.0267L19.91 74.8533C19.7791 75.5407 19.8476 76.2513 20.1075 76.901C20.3674 77.5507 20.8078 78.1125 21.3767 78.52C21.9311 78.9164 22.5851 79.1504 23.2652 79.1957C23.9452 79.2411 24.6245 79.0959 25.2267 78.7767L44 68.9867L62.7 78.8133C63.2146 79.1036 63.7958 79.2553 64.3867 79.2533C65.1634 79.2561 65.9209 79.0121 66.55 78.5567C67.1189 78.1492 67.5592 77.5874 67.8191 76.9376C68.079 76.2879 68.1476 75.5774 68.0167 74.89L64.35 54.0633L79.4933 39.3967C80.0227 38.9481 80.414 38.3586 80.6217 37.6966C80.8294 37.0346 80.845 36.3272 80.6667 35.6567ZM58.1167 50.3233C57.6866 50.7393 57.3649 51.2541 57.1796 51.8229C56.9942 52.3917 56.9509 52.9972 57.0533 53.5867L59.6933 68.95L45.9067 61.6167C45.3762 61.3342 44.7844 61.1864 44.1833 61.1864C43.5823 61.1864 42.9905 61.3342 42.46 61.6167L28.6733 68.95L31.3133 53.5867C31.4158 52.9972 31.3724 52.3917 31.1871 51.8229C31.0017 51.2541 30.68 50.7393 30.25 50.3233L19.25 39.3233L34.6867 37.0867C35.2807 37.004 35.8453 36.777 36.3312 36.4254C36.817 36.0738 37.2092 35.6084 37.4733 35.07L44 21.1L50.8933 35.1067C51.1575 35.6451 51.5497 36.1105 52.0355 36.4621C52.5213 36.8136 53.086 37.0407 53.68 37.1233L69.1167 39.36L58.1167 50.3233Z" fill="#F97615"/>
</svg>
