<svg width="90" height="90" viewBox="0 0 90 90" fill="none" xmlns="http://www.w3.org/2000/svg">
<path d="M42.1875 7.77375C39.915 8.1975 37.245 9.1125 33.1425 10.5188L30.9938 11.25C19.7175 15.1125 14.0813 17.04 12.6675 19.0575C11.28 21.03 11.25 26.8125 11.25 38.2875L42.1875 27.975V7.77375ZM42.1875 33.9L11.25 44.2125V44.9663C11.25 66.1088 27.1463 76.3688 37.1213 80.7263C39.0338 81.5625 40.2713 82.1025 42.1875 82.3463V33.9ZM47.8125 82.35V33.9L78.75 44.2125V44.9663C78.75 66.1088 62.8537 76.3688 52.8787 80.7263C50.9662 81.5625 49.7287 82.1062 47.8125 82.35ZM47.8125 27.975V7.77C50.085 8.19375 52.755 9.10875 56.8575 10.515L59.0062 11.25C70.2825 15.1088 75.9187 17.0363 77.3325 19.0538C78.72 21.0263 78.75 26.8088 78.75 38.28L47.8125 27.975Z" fill="#F97615"/>
</svg>
