<svg width="32" height="32" viewBox="0 0 32 32" fill="none" xmlns="http://www.w3.org/2000/svg">
<path d="M26.6666 12.8933V12.6666C26.6747 10.3986 25.9551 8.1877 24.6135 6.35893C23.2719 4.53016 21.3791 3.17992 19.2133 2.50664H19.1333C18.0147 2.16518 16.8492 2.00317 15.6799 2.02664C12.8957 2.17943 10.2747 3.38897 8.35192 5.40841C6.42912 7.42785 5.34945 10.1049 5.33326 12.8933C4.55194 13.1682 3.87521 13.6788 3.39648 14.3547C2.91775 15.0306 2.66064 15.8384 2.66064 16.6666C2.66064 17.4949 2.91775 18.3027 3.39648 18.9786C3.87521 19.6545 4.55194 20.1651 5.33326 20.44C5.60788 23.073 6.85182 25.5099 8.82323 27.2767C10.7946 29.0436 13.3526 30.0143 15.9999 30H16.3066C18.8665 29.8761 21.2998 28.8491 23.1744 27.1014C25.0491 25.3537 26.2438 22.9983 26.5466 20.4533C27.3371 20.194 28.0271 19.6947 28.5205 19.0248C29.0139 18.3549 29.2861 17.5479 29.2993 16.7161C29.3126 15.8842 29.066 15.0689 28.5942 14.3838C28.1223 13.6986 27.4485 13.1776 26.6666 12.8933ZM16.2399 27.3333C14.3098 27.3891 12.4246 26.745 10.9322 25.5197C9.4398 24.2944 8.44094 22.5707 8.11992 20.6666H23.8133C23.4878 22.4692 22.5626 24.1087 21.1877 25.319C19.8128 26.5293 18.0692 27.2391 16.2399 27.3333ZM25.3333 18H6.66659C6.31297 18 5.97383 17.8595 5.72378 17.6095C5.47373 17.3594 5.33326 17.0203 5.33326 16.6666C5.33326 16.313 5.47373 15.9739 5.72378 15.7238C5.97383 15.4738 6.31297 15.3333 6.66659 15.3333H9.33326C9.68688 15.3333 10.026 15.1928 10.2761 14.9428C10.5261 14.6927 10.6666 14.3536 10.6666 14C10.6666 13.6464 10.5261 13.3072 10.2761 13.0572C10.026 12.8071 9.68688 12.6666 9.33326 12.6666H7.99992C8.05961 11.2835 8.45494 9.93557 9.15182 8.73927C9.84869 7.54297 10.8262 6.53419 11.9999 5.79998V9.99998C11.9999 10.3536 12.1404 10.6927 12.3904 10.9428C12.6405 11.1928 12.9796 11.3333 13.3333 11.3333C13.6869 11.3333 14.026 11.1928 14.2761 10.9428C14.5261 10.6927 14.6666 10.3536 14.6666 9.99998V4.78664C15.0284 4.72518 15.3934 4.68512 15.7599 4.66664H15.9999C16.4467 4.67468 16.8923 4.71478 17.3333 4.78664V9.99998C17.3333 10.3536 17.4737 10.6927 17.7238 10.9428C17.9738 11.1928 18.313 11.3333 18.6666 11.3333C19.0202 11.3333 19.3594 11.1928 19.6094 10.9428C19.8594 10.6927 19.9999 10.3536 19.9999 9.99998V5.75998C20.5652 6.08793 21.0928 6.47692 21.5733 6.91998C22.342 7.66651 22.9529 8.55987 23.3698 9.54704C23.7866 10.5342 24.0009 11.5951 23.9999 12.6666H22.6666C22.313 12.6666 21.9738 12.8071 21.7238 13.0572C21.4737 13.3072 21.3333 13.6464 21.3333 14C21.3333 14.3536 21.4737 14.6927 21.7238 14.9428C21.9738 15.1928 22.313 15.3333 22.6666 15.3333H25.3333C25.6869 15.3333 26.026 15.4738 26.2761 15.7238C26.5261 15.9739 26.6666 16.313 26.6666 16.6666C26.6666 17.0203 26.5261 17.3594 26.2761 17.6095C26.026 17.8595 25.6869 18 25.3333 18Z" fill="#F97615"/>
</svg>
